<?xml version="1.0" encoding="utf-8"?>
<!-- Generator: Adobe Illustrator 25.2.1, SVG Export Plug-In . SVG Version: 6.00 Build 0)  -->
<svg version="1.1" id="图层_1" xmlns="http://www.w3.org/2000/svg" xmlns:xlink="http://www.w3.org/1999/xlink" x="0px" y="0px"
	 viewBox="0 0 200 200" style="enable-background:new 0 0 200 200;" xml:space="preserve">
<style type="text/css">
	.st0{fill:#231815;}
</style>
<path class="st0" d="M168.2,37.6c4,0,7.3,0.7,9.9,2c2.6,1.3,4.7,3,6.2,5s2.6,4.2,3.2,6.5c0.6,2.3,0.9,4.5,0.9,6.5
	c0,0.9,0,1.7-0.1,2.2s-0.1,1-0.1,1.4v1.2H175v105c0,2.7-0.5,5.2-1.6,7.7s-2.6,4.6-4.6,6.5s-4.4,3.4-7.3,4.5
	c-2.9,1.1-6.2,1.7-9.9,1.7H62.4c-3.5,0-6.7-0.5-9.8-1.6s-5.7-2.6-7.9-4.5s-3.9-4.3-5.2-7s-1.9-5.8-1.9-9.3v-103H25.2
	c-0.1-0.1-0.2-0.5-0.2-1c-0.1-0.7-0.2-2.7-0.2-6.2c0-1.7,0.4-3.7,1.2-5.8c0.8-2.1,2-4.1,3.6-5.9c1.6-1.8,3.7-3.3,6.2-4.5
	s5.5-1.8,9-1.8h17.8V25c0-3.5,1.2-6.4,3.6-8.9c2.4-2.5,5.3-3.7,8.8-3.7h62.6c4.7,0,7.9,1.2,9.7,3.7s2.7,5.4,2.7,8.9v12.4
	c2.8,0.1,5.8,0.2,9,0.2L168.2,37.6L168.2,37.6z M75,37.6h62.6V25H75V37.6z M68.8,164.2c4.3,0,6.4-2.7,6.4-8.2V63.2H62.8V156
	c0,2.8,0.4,4.9,1.3,6.2C65,163.5,66.5,164.2,68.8,164.2z M106.6,164c2.3,0,3.8-0.6,4.6-1.9c0.8-1.3,1.2-3.3,1.2-6.1V63.2H100V156
	C100,161.3,102.2,164,106.6,164z M144.2,163.6c2.4,0,4-0.6,4.8-1.9c0.8-1.3,1.2-3.3,1.2-6.1V63.2h-12.6v92.4
	C137.6,160.9,139.8,163.6,144.2,163.6L144.2,163.6z"/>
</svg>
