<?xml version="1.0" encoding="utf-8"?>
<!-- Generator: Adobe Illustrator 25.2.1, SVG Export Plug-In . SVG Version: 6.00 Build 0)  -->
<svg version="1.1" id="图层_1" xmlns="http://www.w3.org/2000/svg" xmlns:xlink="http://www.w3.org/1999/xlink" x="0px" y="0px"
	 viewBox="0 0 200 200" style="enable-background:new 0 0 200 200;" xml:space="preserve">
<style type="text/css">
	.st0{fill:#FFFFFF;}
</style>
<path class="st0" d="M174.6,42.5H25.4c-3.2,0-5.8,2.6-5.8,5.8v103.5c0,3.2,2.6,5.8,5.8,5.8h149.2c3.2,0,5.8-2.6,5.8-5.8V48.2
	C180.3,45.1,177.8,42.5,174.6,42.5z M157.9,54L100,99.2L42.1,54H157.9z M31.2,146V60l65.3,51c1,0.8,2.3,1.2,3.5,1.2
	c1.3,0,2.5-0.4,3.5-1.2l65.3-51v86H31.2z"/>
</svg>
