<?xml version="1.0" encoding="utf-8"?>
<!-- Generator: Adobe Illustrator 25.2.1, SVG Export Plug-In . SVG Version: 6.00 Build 0)  -->
<svg version="1.1" id="图层_1" xmlns="http://www.w3.org/2000/svg" xmlns:xlink="http://www.w3.org/1999/xlink" x="0px" y="0px"
	 viewBox="0 0 200 200" style="enable-background:new 0 0 200 200;" xml:space="preserve">
<style type="text/css">
	.st0{fill:#FFFFFF;}
</style>
<path class="st0" d="M130.4,22.9c32.2,0,52.9,25.9,52.9,60.6c0,27-24.4,56.7-72.6,90.2c-6.5,4.5-15,4.5-21.5,0
	c-48.1-33.4-72.6-63.2-72.6-90.2c0-34.8,20.7-60.6,52.9-60.6c11.6,0,19.5,4.1,30.4,13.3C110.9,27,118.8,22.9,130.4,22.9z
	 M130.4,35.3c-8.1,0-13.7,3-22.8,10.8c-0.4,0.4-2.8,2.4-3.5,3c-2.4,2-5.8,2-8.2,0c-0.7-0.6-3.1-2.6-3.5-3
	c-9.1-7.8-14.8-10.8-22.8-10.8c-24.6,0-40.4,19.7-40.4,48.1c0,21.7,22.2,48.5,67.2,79.7c2.2,1.5,5,1.5,7.2,0
	c45.1-31.2,67.2-58.1,67.2-79.7C170.8,54.9,155,35.2,130.4,35.3z"/>
</svg>
