<?xml version="1.0" encoding="utf-8"?>
<!-- Generator: Adobe Illustrator 25.2.1, SVG Export Plug-In . SVG Version: 6.00 Build 0)  -->
<svg version="1.1" id="图层_1" xmlns="http://www.w3.org/2000/svg" xmlns:xlink="http://www.w3.org/1999/xlink" x="0px" y="0px"
	 viewBox="0 0 200 200" style="enable-background:new 0 0 200 200;" xml:space="preserve">
<style type="text/css">
	.st0{fill:#FFFFFF;}
</style>
<path class="st0" d="M113.7,192.7c-2.7,0-5.4-1-7.4-3.1l-88.7-88.7c-0.8-0.8-4.3-4.3-4.2-10.7L9.8,13.1c0-1,0.3-2,1-2.7l0.1-0.1
	c0.7-0.7,1.7-1.1,2.7-1l77.1,3.6c6.4-0.1,9.9,3.4,10.7,4.2l88.7,88.7c4.1,4.1,4.1,10.7,0,14.8l-6.4,6.4c-1.4,1.4-3.7,1.4-5.1,0
	c-1.4-1.4-1.4-3.7,0-5.1l6.4-6.4c1.3-1.3,1.3-3.3,0-4.6L96.3,22c-0.1-0.1-0.1-0.1-0.2-0.2c-0.2-0.2-2-1.9-5.4-1.9
	c-0.1,0-0.1,0-0.2,0l-73.4-3.4L20.5,90c0,0.1,0,0.1,0,0.2c0,3.4,1.6,5.1,1.9,5.4c0.1,0.1,0.1,0.1,0.2,0.2l88.8,88.8
	c1.3,1.3,3.3,1.3,4.6,0l42.7-42.7c0.5-0.5,6.5-6.3,17-6.3c2,0,3.6,1.6,3.6,3.6s-1.6,3.6-3.6,3.6c-7.6,0-11.8,4.1-11.9,4.2l0,0
	l-42.7,42.7C119,191.7,116.4,192.7,113.7,192.7z"/>
<path class="st0" d="M44,56.7c-7.5,0-13.5-6.1-13.5-13.5s6-13.6,13.5-13.6s13.5,6.1,13.5,13.5S51.4,56.7,44,56.7z M44,36.8
	c-3.5,0-6.4,2.9-6.4,6.4s2.9,6.4,6.4,6.4s6.4-2.9,6.4-6.4C50.3,39.7,47.5,36.8,44,36.8z"/>
</svg>
