<?xml version="1.0" standalone="no"?><!DOCTYPE svg PUBLIC "-//W3C//DTD SVG 1.1//EN" "http://www.w3.org/Graphics/SVG/1.1/DTD/svg11.dtd"><svg t="1650543368085" class="icon" viewBox="0 0 1024 1024" version="1.1" xmlns="http://www.w3.org/2000/svg" p-id="2951" xmlns:xlink="http://www.w3.org/1999/xlink" width="200" height="200"><defs><style type="text/css">@font-face { font-family: feedback-iconfont; src: url("//at.alicdn.com/t/font_1031158_u69w8yhxdu.woff2?t=1630033759944") format("woff2"), url("//at.alicdn.com/t/font_1031158_u69w8yhxdu.woff?t=1630033759944") format("woff"), url("//at.alicdn.com/t/font_1031158_u69w8yhxdu.ttf?t=1630033759944") format("truetype"); }
</style></defs><path d="M469.333333 138.666667v277.333333a53.393333 53.393333 0 0 1-53.333333 53.333333H138.666667a53.393333 53.393333 0 0 1-53.333334-53.333333V138.666667a53.393333 53.393333 0 0 1 53.333334-53.333334h277.333333a53.393333 53.393333 0 0 1 53.333333 53.333334z m416-53.333334H608a53.393333 53.393333 0 0 0-53.333333 53.333334v277.333333a53.393333 53.393333 0 0 0 53.333333 53.333333h277.333333a53.393333 53.393333 0 0 0 53.333334-53.333333V138.666667a53.393333 53.393333 0 0 0-53.333334-53.333334zM416 554.666667H138.666667a53.393333 53.393333 0 0 0-53.333334 53.333333v277.333333a53.393333 53.393333 0 0 0 53.333334 53.333334h277.333333a53.393333 53.393333 0 0 0 53.333333-53.333334V608a53.393333 53.393333 0 0 0-53.333333-53.333333z m469.333333 0H608a53.393333 53.393333 0 0 0-53.333333 53.333333v277.333333a53.393333 53.393333 0 0 0 53.333333 53.333334h277.333333a53.393333 53.393333 0 0 0 53.333334-53.333334V608a53.393333 53.393333 0 0 0-53.333334-53.333333z" fill="#ffffff" p-id="2952"></path></svg>