<?xml version="1.0" encoding="utf-8"?>
<!-- Generator: Adobe Illustrator 25.2.1, SVG Export Plug-In . SVG Version: 6.00 Build 0)  -->
<svg version="1.1" id="图层_1" xmlns="http://www.w3.org/2000/svg" xmlns:xlink="http://www.w3.org/1999/xlink" x="0px" y="0px"
	 viewBox="0 0 200 200" style="enable-background:new 0 0 200 200;" xml:space="preserve">
<style type="text/css">
	.st0{fill:#231815;}
</style>
<path class="st0" d="M109.4,100c-0.3,15.8,58,21.1,58,54.7h0.2v21.4c0,2.9-2.4,5.3-5.3,5.3H14.4c-2.9,0-5.3-2.4-5.3-5.3v-21.4h0.2
	c0.1-36.2,57.7-39.5,58-54.7c0.1-0.8,0.1-9.1-2.7-13.6c-3-4.8-13.2-20.1-13.2-34.3c0-21.9,15.1-39.6,37-39.6s37,17.7,37,39.6
	c0,14.3-11.7,30.2-13.2,34.3C110.5,90.9,109.5,99,109.4,100z"/>
<path class="st0" d="M190.3,137.5c0-27.2-47.2-31.5-47-44.3c0.1-0.9,0.9-7.4,2.2-11c1.2-3.3,10.7-16.2,10.7-27.8
	c0-17.5-12-31.8-29.4-32.1c6,8.5,9.2,19,9.2,30.1c0,6.1-1.5,12.7-4.6,20.2c-2.4,5.7-5.3,10.7-7.3,14.4c-0.7,1.3-1.6,2.9-1.9,3.4
	c-0.8,2.2-1.5,6.5-1.9,9.1c0.6,0.5,1.7,1.4,3.8,2.7c3,1.8,7,3.8,11.2,5.8c8.8,4.3,18.7,9.1,26.8,15.9c4.9,4.1,8.5,8.3,11.2,13
	c2.8,5,4.4,10.3,4.7,15.9c0.2,0.7,0.3,1.5,0.3,2.2v4h7.9c2.4,0,4.3-1.9,4.3-4.3v-17.4L190.3,137.5L190.3,137.5z"/>
</svg>
