<?xml version="1.0" encoding="utf-8"?>
<!-- Generator: Adobe Illustrator 25.2.1, SVG Export Plug-In . SVG Version: 6.00 Build 0)  -->
<svg version="1.1" id="图层_1" xmlns="http://www.w3.org/2000/svg" xmlns:xlink="http://www.w3.org/1999/xlink" x="0px" y="0px"
	 viewBox="0 0 200 200" style="enable-background:new 0 0 200 200;" xml:space="preserve">
<style type="text/css">
	.st0{fill:#FFFFFF;}
</style>
<path class="st0" d="M99.9,12.4c-48.3,0-87.5,39.2-87.5,87.5s39.2,87.5,87.5,87.5s87.5-39.2,87.5-87.5S148.2,12.4,99.9,12.4z
	 M99.9,174.9c-10.1,0-20-2-29.2-5.9c-7-3-13.5-7-19.3-11.9c2.4-6.2,8.2-12.5,16.4-17.4c9.5-5.7,21.3-9,32.2-9s22.5,3.3,32,8.9
	c8.2,4.9,14,11.1,16.4,17.3c-5.8,4.9-12.3,9-19.4,11.9C119.8,172.9,110,174.9,99.9,174.9L99.9,174.9z M157.7,147.6
	c-4-7-10.6-13.4-19.3-18.6c-11.5-6.9-25.2-10.7-38.4-10.7c-13.3,0-27,3.8-38.6,10.7c-8.7,5.2-15.4,11.6-19.4,18.7
	c-4.7-5.6-8.4-11.8-11.3-18.6c-3.9-9.2-5.9-19.1-5.9-29.2s2-20,5.9-29.2c3.8-8.9,9.2-17,16.1-23.8c6.9-6.9,14.9-12.3,23.8-16.1
	c9.2-3.9,19.1-5.9,29.2-5.9s20,2,29.2,5.9c8.9,3.8,17,9.2,23.8,16.1c6.9,6.9,12.3,14.9,16.1,23.8c3.9,9.2,5.9,19.1,5.9,29.2
	s-2,20-5.9,29.2C166.1,135.8,162.4,142,157.7,147.6L157.7,147.6z"/>
<path class="st0" d="M100,43c-17.2,0-31.2,14-31.2,31.2s14,31.2,31.2,31.2s31.2-14,31.2-31.2S117.2,43,100,43z M100,93
	c-10.3,0-18.8-8.4-18.8-18.8s8.4-18.7,18.8-18.7s18.8,8.4,18.8,18.7S110.3,93,100,93z"/>
</svg>
